inDegrees=no
num_controls=7
num_derivatives=13
num_iterations=87
num_multipliers=7
num_parameters=0
num_slacks=7
num_states=26
objective=0.346832
objective_accelerations=0.011076
objective_balance=0.000827
objective_effort=0.010865
objective_height=0.322047
objective_ligament=0.002017
solver_duration=878.264258
status=Solve_Succeeded
success=true
DataType=double
version=3
OpenSimVersion=4.5
endheader
time	/jointset/ground_pelvis/pelvis_tilt/value	/jointset/ground_pelvis/pelvis_tx/value	/jointset/ground_pelvis/pelvis_ty/value	/jointset/hip_r/hip_flexion_r/value	/jointset/hip_r/hip_adduction_r/value	/jointset/hip_r/hip_rotation_r/value	/jointset/back/lumbar_extension/value	/jointset/patellofemoral_r/patellar_flexion_r/value	/jointset/knee_r/knee_flexion_r/value	/jointset/knee_r/knee_adduction_r/value	/jointset/knee_r/knee_rotation_r/value	/jointset/ankle_r/ankle_angle_r/value	/jointset/subtalar_r/subtalar_angle_r/value	/jointset/ground_pelvis/pelvis_tilt/speed	/jointset/ground_pelvis/pelvis_tx/speed	/jointset/ground_pelvis/pelvis_ty/speed	/jointset/hip_r/hip_flexion_r/speed	/jointset/hip_r/hip_adduction_r/speed	/jointset/hip_r/hip_rotation_r/speed	/jointset/back/lumbar_extension/speed	/jointset/patellofemoral_r/patellar_flexion_r/speed	/jointset/knee_r/knee_flexion_r/speed	/jointset/knee_r/knee_adduction_r/speed	/jointset/knee_r/knee_rotation_r/speed	/jointset/ankle_r/ankle_angle_r/speed	/jointset/subtalar_r/subtalar_angle_r/speed	/forceset/tau_hip_flexion_r	/forceset/tau_hip_adduction_r	/forceset/tau_hip_rotation_r	/forceset/tau_knee_flexion_r	/forceset/tau_ankle_angle_r	/forceset/tau_subtalar_angle_r	/forceset/tau_lumbar_extension	lambda_cid13_p0	lambda_cid14_p0	lambda_cid14_p1	lambda_cid14_p2	lambda_cid14_p3	lambda_cid14_p4	lambda_cid14_p5	/jointset/ground_pelvis/pelvis_tilt/accel	/jointset/ground_pelvis/pelvis_tx/accel	/jointset/ground_pelvis/pelvis_ty/accel	/jointset/hip_r/hip_flexion_r/accel	/jointset/hip_r/hip_adduction_r/accel	/jointset/hip_r/hip_rotation_r/accel	/jointset/back/lumbar_extension/accel	/jointset/patellofemoral_r/patellar_flexion_r/accel	/jointset/knee_r/knee_flexion_r/accel	/jointset/knee_r/knee_adduction_r/accel	/jointset/knee_r/knee_rotation_r/accel	/jointset/ankle_r/ankle_angle_r/accel	/jointset/subtalar_r/subtalar_angle_r/accel	gamma_cid13_p0	gamma_cid14_p0	gamma_cid14_p1	gamma_cid14_p2	gamma_cid14_p3	gamma_cid14_p4	gamma_cid14_p5
1.5	0.1035887310917478	0.1154547199135064	0.9170732448887153	0.2307185292408747	-0.2381244781515114	-0.1773128954234185	-0.5552807711275946	0.4869396408608222	0.4869396408608204	0.09449611581159409	0.1745252872756357	0.2113838369545049	0.08729200662947935	-0.08140210044390617	0.08035055339764305	0.08820926431574515	-0.4354284246646957	-0.003283288389954151	-0.1513187790478508	0.7924678490750184	-0.7648813282142561	-0.7648813282142567	0.1760838651866447	7.87511425138544e-05	-0.3007695848160311	-0.09982075719448405	-0.03068842371740563	0.004773315362803699	0.01565026761022157	-0.2153165586346473	-0.02562448240206398	-0.03491486067728383	0.1280234825139034	-28.55196996866622	-53.56627506101204	-20.59558930122197	-0.8029911025507127	4.624594936122271	-655.3299161902189	48.4576032795221	-0.18842819428738	0.04128457664240175	-0.09243348862824614	-0.07006076227244271	-0.02751234918251861	-0.1933631688150919	0.6314186284772431	-0.439938847790986	-0.4399388477909856	0.1985935274644632	-0.01119813048341398	-0.2405293340327335	-0.0686495728242658	4.338657949884306e-08	2.030140965946144e-08	-3.268314437286184e-07	2.620694185984676e-07	2.416925147251635e-08	3.299968839419019e-08	-3.485254649658913e-07
1.51	0.1027653694933718	0.1162602109650195	0.9179505542951438	0.2263611725242493	-0.2381590877841049	-0.1788357758429723	-0.5473253703625348	0.4792697663324116	0.4792697663324099	0.0962675286182845	0.1745260808979519	0.2083643692465312	0.08628990724074921	-0.08325805428022547	0.08073883342320941	0.08723814782684326	-0.4359919698633343	-0.003634728969203753	-0.153257531342257	0.7985215503295289	-0.7689958772084733	-0.7689958772084727	0.1781676329618102	8.697020421149799e-05	-0.3030823391452576	-0.1005786951287147	-0.02767589512991748	0.00300958595897614	0.01550926711863908	-0.2147972846869816	-0.02300010881359639	-0.03569975646140491	0.1247997366175765	-28.71533819192335	-52.71552612807337	-20.73781972909067	-0.8370733779153909	4.362366162215211	-654.4724618386008	48.67928818036292	-0.1823518882216153	0.03628087918303428	-0.1016112474400724	-0.04185646651966277	-0.03835584523477836	-0.1941079711904124	0.578732832849977	-0.3825674677926236	-0.3825674677924786	0.2085801672585008	0.00793279062741223	-0.2203974671384298	-0.07632054540100656	4.637031499032501e-08	2.349928678378888e-08	-3.424177245404805e-07	2.927858909755627e-07	2.368127891051999e-08	4.373495246990542e-08	-3.791149056833571e-07
1.52	0.1019238137746497	0.1170693210495221	0.9188177204329997	0.2219997093420654	-0.2381970910090779	-0.1803780391277578	-0.5393121551931478	0.4715616754055464	0.4715616754055457	0.09805884145566594	0.174527176884112	0.2053230241983111	0.08528083754434106	-0.08504092451324147	0.08107435999554566	0.08618061060118593	-0.4362497177763768	-0.003962006865997259	-0.1551953520941446	0.8040307299405209	-0.7725246079049126	-0.7725246079049112	0.1800638713256121	0.000139223911151407	-0.3051450528653171	-0.1012148187300873	-0.02466336654243301	0.001245856555147662	0.01536826662706858	-0.2142780107393182	-0.02037573522513006	-0.03648465224552883	0.1215759907212472	-28.87118674641081	-51.86723855067011	-20.87755704069327	-0.874893227441112	4.092705672976974	-653.6599692552822	48.93906284541443	-0.1738114736267059	0.03073388599636089	-0.1097176359793374	-0.00890130515322279	-0.02267981269129164	-0.1931768603113671	0.5225142997735813	-0.322775188235458	-0.3227751882354591	0.1610876451917342	-0.00239120143498221	-0.1905212121993429	-0.04428670625265797	4.952716125702572e-08	3.114138022406957e-08	-3.262662032376475e-07	3.815172967631906e-07	1.764048061125109e-08	7.137210232466096e-08	-4.386835274040798e-07
1.53	0.1010649221839612	0.1178815035087409	0.9196739051416183	0.2176369336356997	-0.2382385704723686	-0.1819385387672002	-0.5312467430734797	0.463821052347942	0.4638210523479405	0.09986932194917028	0.1745282790409672	0.2022621107040786	0.08426548525610629	-0.08672324148418949	0.0813505387880615	0.08504267893360562	-0.4362510915716212	-0.004330151473859336	-0.1569020828709791	0.8089538958343805	-0.7754982103612886	-0.7754982103612873	0.181999910571162	8.731969652571347e-05	-0.3069969423806308	-0.1018360971026864	-0.02164986212357783	-0.0006195470779457502	0.01525512749376105	-0.2137228615332086	-0.01785178416552551	-0.03733291624675214	0.1183380919981471	-29.01931521440428	-51.05701712509494	-21.05197957961248	-0.9066128196937833	3.88976697886879	-652.8535089685154	49.15816755702762	-0.1633162493446343	0.02432077827414804	-0.1178504850479278	0.01239908639387266	-0.04323786691808892	-0.1589531251084773	0.4625480104060775	-0.2693947174119715	-0.269394717412009	0.2050258675973648	-0.005568354095560715	-0.1764154016991449	-0.06808358542428497	5.286793772239639e-08	4.350545350005051e-08	-2.763932671879514e-07	5.318895692995089e-07	5.699804966130169e-09	1.169675058196467e-07	-5.290425289407627e-07
1.54	0.1001896325354601	0.1186960999363639	0.9205183066229808	0.2132757750920023	-0.2382836025981548	-0.1835160121021588	-0.5231350332396303	0.456053744877158	0.4560537448771571	0.1016981955957998	0.1745290664911534	0.1991838997985927	0.08324451314761339	-0.0883205360757691	0.08155715367637489	0.08382396515000505	-0.4359262852427087	-0.004672539365098197	-0.1585900911973732	0.8132902727767972	-0.7778614905405967	-0.7778614905405957	0.183742501951142	7.628257713226898e-05	-0.3086045351160151	-0.1023387827817158	-0.018636357704724	-0.00248495071103966	0.01514198836046213	-0.2131677123270998	-0.01532783310592125	-0.0381811802479763	0.115100193275046	-29.15957822300518	-50.2477936519542	-21.22340925737383	-0.9424279309066598	3.667764080355375	-652.0753106834208	49.43881171149535	-0.1568069977530064	0.01682110515585367	-0.1258740591833866	0.05633471967818469	-0.01752846936664016	-0.189432370223254	0.405156509485018	-0.2007107328218912	-0.2007107328218917	0.1223980720777452	0.005782217611442892	-0.1416618562134785	-0.02056816753872965	5.611121395120062e-08	5.072698736494608e-08	-2.651265895094725e-07	6.147038426944893e-07	3.855984495666502e-10	1.440790143875146e-07	-5.875552819131747e-07
1.55	0.09929891472462339	0.1195124177086669	0.9213501339709784	0.2089193411134279	-0.2383320156906986	-0.1851101361125123	-0.5149830146754319	0.4482658581804853	0.4482658581804837	0.1035437447935571	0.1745299027900547	0.1960908313731982	0.08221898743652767	-0.08980203533316296	0.08169482230204557	0.08252852771129802	-0.4353108111409946	-0.00501395028232	-0.16020283576097	0.8170086442777563	-0.7796062368761968	-0.7796062368761966	0.1853583683739513	8.055242344566729e-05	-0.3099653729983425	-0.1027572981372146	-0.01561128798210157	-0.00455690728310494	0.01506843161318836	-0.2126786072784697	-0.01273536389858916	-0.03909642914047901	0.1118519570870087	-29.29186563174393	-49.42129534306138	-21.42291654287693	-0.9714696280831963	3.452264385856858	-651.2998755661619	49.69981490443754	-0.1406701378067007	0.01050376799429258	-0.133294472076365	0.07161335376177874	-0.04295037376196386	-0.1423154619677937	0.3394581026504049	-0.1449269925886916	-0.144926992588795	0.1798385072232086	-0.003707942799826722	-0.1267243628721222	-0.05110989112931743	5.924215295091744e-08	5.202342147359145e-08	-2.983410356065242e-07	6.196795518614107e-07	2.7062367985145e-09	1.498938614089218e-07	-6.093756180615373e-07
1.56	0.09839401217159778	0.1203297649725709	0.9221686237674166	0.2045705537955395	-0.2383839434865875	-0.1867194115610097	-0.5067969562697741	0.4404638099387247	0.4404638099387231	0.105405184171515	0.1745304903252308	0.1929854686472544	0.08118955323757218	-0.09115748451352222	0.08176305199658089	0.08115645483811366	-0.4343969531055301	-0.005375480034023065	-0.1616203788261628	0.8200982410686775	-0.7806937995581819	-0.7806937995581822	0.1869205379903879	2.652983211508073e-05	-0.3110633952258605	-0.1031204803556681	-0.01258621825947699	-0.006628863855168091	0.01499487486590724	-0.2121895022298382	-0.0101428946912558	-0.04001167803297773	0.1086037208989723	-29.41610881626247	-48.59491996911673	-21.61927329720966	-1.004637227254109	3.2161552149433	-650.5403622419684	50.02141413590099	-0.1315969823460661	0.00293331892876975	-0.141201146078855	0.1160115064282821	-0.02155223626288378	-0.1503920705424361	0.2794015674774651	-0.06927400209886497	-0.06927400209886508	0.1116587108031846	-0.005876269917377613	-0.08909872525162268	-0.00950154012966805	6.136626105792832e-08	5.00272092447871e-08	-3.452435124668781e-07	5.804064530780301e-07	8.077216562226469e-09	1.44037238611058e-07	-6.027873579604403e-07
